# xmcd CD database file
#
# Track frame offsets:
#	150
#	20669
#	41329
#	62024
#	80555
#	99101
#	112284
#	131282
#	151117
#	163441
#	174530
#
# Disc length: 2655 seconds
#
# Revision: 0
# Processed by: cddbd v1.5.2PL0 Copyright (c) Steve Scherf et al.
# Submitted via: CDex 1.70beta2
#
DISCID=880a5d0b
DTITLE=JUPITER ZEUS - ON EARTH
DYEAR=2014
DGENRE=Stoner
TTITLE0=WAVES
TTITLE1=OVER
TTITLE2=COSMIC RAYS
TTITLE3=I AM
TTITLE4=PSYCHOTIC SEEDS
TTITLE5=TALKBACK CALLER 
TTITLE6=DIVINITY
TTITLE7=THE SUM OF
TTITLE8=CO-CREATORS
TTITLE9=WAITING IN A LINE
TTITLE10=STATE OF MIND
EXTD=YEAR: 2014
EXTT0=
EXTT1=
EXTT2=
EXTT3=
EXTT4=
EXTT5=
EXTT6=
EXTT7=
EXTT8=
EXTT9=
EXTT10=
PLAYORDER=
